# xmcd
#
# Track frame offsets:
#	150
#	12410
#	24452
#	42115
#	55260
#	76055
#	97035
#	113390
#	124317
#	140462
#	159315
#
# Disc length: 2327 seconds
#
# Revision: 1
# Processed by: cddbd v1.5.2PL0 Copyright (c) Steve Scherf et al.
# Submitted via: EasyCDDAExtractor 16.0.6.1
#
DISCID=8009150b
DTITLE=Σκορδαλάκη Κατερίνα - Ρεμπέτικες διαδρομές-Κ. Σκορδαλάκη
DYEAR=2000
DGENRE=Ποικίλη
TTITLE0=Μη με στέλνεις μάννα στην Αμερική
TTITLE1=Είναι έγκλημα μεγάλο [Γ. Μαργιολά]
TTITLE2=Όσο βαρούν τα σίδερα
TTITLE3=Τσάχπιν
TTITLE4=Αμάν αραπίνα
TTITLE5=Και γιατί δεν μάς το λες
TTITLE6=Γιωργίτσα
TTITLE7=Καλαματιανή
TTITLE8=Μη φέρνεις μάννα τον γιατρό
TTITLE9=Στης πικροδάφνης τον ανθό
TTITLE10=Ο σεβντάς
EXTD=ID3G: 28
EXTT0=
EXTT1=
EXTT2=
EXTT3=
EXTT4=
EXTT5=
EXTT6=
EXTT7=
EXTT8=
EXTT9=
EXTT10=
PLAYORDER=
